<svg width="46" height="45" viewBox="0 0 46 45" fill="none" xmlns="http://www.w3.org/2000/svg">
<path d="M0.0139075 8.44014C-0.0738595 7.61577 0.264044 6.92879 0.737986 6.28045C1.51034 5.22852 2.42311 4.3011 3.40172 3.44238C4.275 2.67812 5.17461 1.94391 6.07861 1.214C6.63155 0.767464 7.21958 0.359571 7.92172 0.162065C8.83889 -0.0998448 9.72534 -0.0697896 10.5591 0.44115C10.9541 0.685885 11.2174 1.04655 11.4675 1.42009C13.0122 3.7 14.5569 5.97561 16.1016 8.25551C16.4922 8.83515 16.8608 9.43196 17.2689 9.99872C17.8438 10.7973 17.9272 11.656 17.6639 12.5706C17.4708 13.2404 17.1285 13.8415 16.7818 14.4426C16.1674 15.5117 15.5487 16.5765 14.9299 17.637C14.8685 17.7401 14.8729 17.8088 14.9431 17.9075C15.6452 18.9337 16.4571 19.8783 17.2865 20.8014C18.7083 22.3858 20.2179 23.8928 21.7582 25.3698C23.281 26.8297 24.8388 28.2551 26.5196 29.5432C26.9101 29.8438 27.3226 30.1186 27.7264 30.4062C27.801 30.4577 27.8624 30.4578 27.9458 30.4105C29.2974 29.6634 30.6446 28.9121 32.005 28.1778C32.5711 27.873 33.1811 27.6669 33.8349 27.6025C34.4932 27.5381 35.0988 27.6712 35.6473 28.0276C38.728 30.0241 41.8086 32.0206 44.8848 34.0214C45.5606 34.4637 45.9029 35.1077 45.9819 35.8935C46.0829 36.8724 45.7537 37.7311 45.1832 38.5083C44.4153 39.5473 43.5683 40.5263 42.6906 41.4751C41.9841 42.2351 41.26 42.9736 40.4526 43.6262C40.0313 43.9654 39.5881 44.2789 39.1317 44.5794C38.5173 44.9873 37.8196 45.0345 37.0955 44.983C34.3528 44.7855 31.8339 43.871 29.4071 42.6602C27.3972 41.6598 25.5146 40.4661 23.6935 39.1695C22.2936 38.1734 20.9332 37.1257 19.6298 36.0137C18.5635 35.1034 17.5059 34.1846 16.4834 33.2314C15.2503 32.085 14.0435 30.9129 12.8542 29.7278C11.4061 28.2852 10.0237 26.7824 8.69846 25.2281C6.85535 23.0727 5.13951 20.8272 3.65624 18.4185C2.54599 16.6409 1.58494 14.7861 0.900355 12.8024C0.505403 11.6475 0.215772 10.471 0.0797329 9.26022C0.0490144 8.98543 0.0358493 8.71493 0.0139075 8.44014ZM37.3676 42.9564C37.4378 42.9564 37.5124 42.965 37.5826 42.9564C37.6572 42.9479 37.7318 42.9264 37.802 42.9006C38.5129 42.6172 39.0746 42.1278 39.6232 41.6254C40.9792 40.3803 42.1816 39.0063 43.3094 37.568C43.5683 37.2374 43.8316 36.8982 43.8667 36.4602C43.8974 36.1167 43.858 35.8076 43.5113 35.58C40.5798 33.6908 37.6572 31.7888 34.7346 29.8824C34.4625 29.7064 34.186 29.672 33.892 29.7192C33.655 29.7536 33.4137 29.8051 33.203 29.9082C32.6457 30.1787 32.0972 30.4706 31.553 30.7669C30.3155 31.4496 29.0824 32.1408 27.8448 32.8235C27.8054 32.845 27.7264 32.845 27.6869 32.8235C27.4718 32.7076 27.2568 32.5874 27.0549 32.4543C25.7384 31.5956 24.5273 30.6123 23.338 29.5947C21.8547 28.3281 20.4373 26.9928 19.0506 25.6274C17.4444 24.0431 15.8954 22.4072 14.456 20.6726C13.7495 19.8182 13.0561 18.9552 12.4988 17.9977C12.4329 17.8861 12.4417 17.8131 12.4988 17.71C13.3194 16.2974 14.14 14.8805 14.9563 13.4637C15.2371 12.9742 15.5443 12.4933 15.6321 11.9223C15.6803 11.6174 15.6803 11.3383 15.4829 11.0506C14.6666 9.86991 13.8855 8.67199 13.0824 7.48696C11.9283 5.7824 10.7654 4.08642 9.61563 2.38186C9.48398 2.18435 9.29089 2.14142 9.08902 2.11136C8.61508 2.04696 8.20696 2.2187 7.83834 2.4892C6.29803 3.61412 4.84549 4.8378 3.52459 6.20317C3.09453 6.64541 2.67325 7.10053 2.37484 7.64582C2.26952 7.83903 2.13787 8.05371 2.13348 8.2641C2.11154 8.95966 2.21686 9.65094 2.36607 10.3336C2.68642 11.7934 3.23496 13.176 3.88444 14.5242C4.88498 16.6023 6.13566 18.5387 7.50483 20.4021C9.30844 22.8538 11.2964 25.1637 13.4291 27.3492C14.8773 28.8305 16.3693 30.2688 17.8657 31.7029C19.2173 32.9953 20.6479 34.2061 22.1093 35.3825C24.2376 37.0914 26.4581 38.68 28.8454 40.0325C30.4428 40.9384 32.0972 41.7199 33.8525 42.2866C34.9847 42.6559 36.1564 42.9092 37.3676 42.9564Z" fill="white"/>
<path d="M43.9001 23.5314C43.1936 23.5314 42.5046 23.5314 41.8025 23.5314C41.8025 23.4584 41.8025 23.3983 41.8025 23.3339C41.8025 20.2683 41.8376 17.2027 41.7893 14.1413C41.7586 12.0718 40.8897 10.3801 39.0992 9.20367C38.2742 8.65838 37.3483 8.35783 36.3609 8.25908C36.001 8.22473 35.6412 8.20756 35.277 8.20326C32.644 8.19897 30.0109 8.19897 27.3779 8.19897C27.3165 8.19897 27.2507 8.19897 27.1453 8.19897C27.4174 8.4437 27.6588 8.66268 27.9001 8.87736C29.0543 9.89924 30.2084 10.9211 31.3626 11.9473C31.6127 12.1706 31.8716 12.3895 32.113 12.6214C32.5035 12.9949 32.5255 13.5917 32.1744 13.991C31.8014 14.4118 31.2002 14.4977 30.7614 14.1499C30.3488 13.8236 29.9627 13.4629 29.5721 13.1151C28.339 12.0246 27.1102 10.934 25.8771 9.84342C24.9073 8.9847 23.9331 8.12168 22.9632 7.26296C22.9369 7.24149 22.9106 7.22003 22.8711 7.18997C23.1958 6.9023 23.5118 6.61892 23.8234 6.33984C24.6923 5.57128 25.5612 4.79843 26.43 4.02988C27.571 3.02517 28.7032 2.02047 29.8398 1.01577C30.1031 0.783911 30.3664 0.547763 30.6297 0.311614C30.9501 0.0282362 31.3143 -0.0619296 31.7224 0.0797594C32.1305 0.221448 32.3631 0.522001 32.407 0.942774C32.4421 1.25621 32.3412 1.53959 32.0998 1.75856C31.5469 2.26091 30.9852 2.75897 30.4235 3.25703C29.6774 3.91824 28.927 4.57946 28.181 5.24497C27.8475 5.54123 27.5184 5.83319 27.1453 6.1638C27.2507 6.1638 27.3121 6.1638 27.3735 6.1638C30.0812 6.1638 32.7932 6.1638 35.5008 6.1638C36.927 6.1638 38.2786 6.46865 39.5337 7.13415C41.3943 8.11739 42.6845 9.5901 43.4086 11.5351C43.7553 12.4711 43.9001 13.4415 43.9001 14.4333C43.9001 17.4045 43.9001 20.3799 43.9001 23.3511C43.9001 23.4069 43.9001 23.467 43.9001 23.5314Z" fill="white"/>
</svg>
