<svg width="50" height="50" viewBox="0 0 50 50" fill="none" xmlns="http://www.w3.org/2000/svg">
<path d="M46.8702 22.8196C46.8695 22.7891 46.8679 22.759 46.8641 22.7292C46.8622 22.7132 46.8588 22.6975 46.8561 22.6819C46.8515 22.656 46.8466 22.6304 46.8401 22.6048C46.8359 22.5884 46.8309 22.5724 46.8256 22.556C46.818 22.532 46.8099 22.5087 46.8004 22.4854C46.7943 22.4694 46.7874 22.4538 46.7806 22.4385C46.7699 22.4153 46.7581 22.3931 46.7455 22.371C46.7375 22.3565 46.7298 22.342 46.7211 22.3283C46.7069 22.3054 46.6909 22.2836 46.6749 22.2623C46.6661 22.2501 46.6577 22.2379 46.6482 22.2264C46.6272 22.2009 46.6043 22.1768 46.5807 22.1532C46.5746 22.1471 46.5692 22.1402 46.5627 22.1345C46.5334 22.107 46.5029 22.0811 46.4701 22.057L40.4447 17.6415L40.4581 11.3205C40.4722 11.2542 40.4817 11.1863 40.4817 11.1165V0.984196C40.4817 0.440599 40.0411 0 39.4975 0H31.6762C31.1326 0 30.692 0.440599 30.692 0.984196V3.67662H10.767C10.5061 3.67662 10.2555 3.78038 10.0712 3.96501C9.88658 4.14964 9.78282 4.40027 9.78282 4.6612L9.78396 17.6644L3.73192 22.0506C3.73154 22.0509 3.73116 22.0509 3.73116 22.0509L3.72696 22.054C3.69301 22.0784 3.66173 22.1051 3.63159 22.133C3.62282 22.1414 3.61481 22.1509 3.60642 22.1597C3.58544 22.1806 3.56484 22.2024 3.54576 22.2249C3.53584 22.2371 3.52707 22.2501 3.51753 22.2627C3.50189 22.2836 3.48663 22.3046 3.47252 22.3267C3.46375 22.3412 3.45573 22.3557 3.44734 22.3702C3.43514 22.392 3.42331 22.4145 3.41301 22.437C3.40576 22.4526 3.3989 22.4683 3.39241 22.4843C3.38326 22.5076 3.37486 22.5312 3.36723 22.5549C3.36227 22.5713 3.35693 22.5877 3.35274 22.6041C3.34625 22.6293 3.34129 22.6548 3.33672 22.6808C3.33405 22.6968 3.33061 22.7124 3.3287 22.7284C3.32489 22.7582 3.32336 22.7887 3.32222 22.8188C3.32184 22.8295 3.32031 22.8402 3.32031 22.8509V49.0156C3.32031 49.5592 3.76091 49.9998 4.30451 49.9998H45.8883C46.4319 49.9998 46.8725 49.5592 46.8725 49.0156V22.8513C46.8725 22.8406 46.8706 22.8303 46.8702 22.8196V22.8196ZM44.1904 22.8272L40.4817 25.3877V20.1093L44.1904 22.8272ZM32.6604 1.96839H38.5133V8.88027L36.252 6.80888C36.0635 6.63646 35.8255 6.55024 35.5871 6.55024C35.3486 6.55024 35.1102 6.63646 34.9222 6.80888L32.6604 8.88027V1.96839ZM30.692 5.64539V11.1165C30.692 11.5067 30.9228 11.8603 31.2799 12.0175C31.6373 12.1747 32.0535 12.106 32.3411 11.8424L35.5871 8.86921L38.4893 11.5277L38.4572 26.7854L27.6635 34.2378C26.1281 35.2979 24.0647 35.2979 22.5293 34.2378L11.7535 26.7976L11.7516 5.64539H30.692ZM9.78282 25.4373L6.00854 22.8318L9.78282 20.0963V25.4373ZM5.2887 48.0318V24.727L10.2078 28.1243C10.2116 28.127 10.2158 28.1285 10.22 28.1312L21.4108 35.8579C21.6176 36.0006 21.8308 36.1299 22.0498 36.2459C22.9977 36.7479 24.0472 36.9993 25.0966 36.9993C26.035 36.9993 26.9731 36.7971 27.839 36.3954C28.016 36.3138 28.1903 36.2241 28.3601 36.1253C28.5035 36.0422 28.6443 35.9529 28.782 35.8579L39.8412 28.2224C39.9175 28.1938 39.9915 28.1579 40.0606 28.1102L44.9041 24.7361V48.0318H5.2887Z" fill="#CB9C71"/>
<path d="M35.936 45.356C35.7326 44.8517 35.1589 44.6087 34.655 44.8121C34.1511 45.0154 33.9073 45.5891 34.111 46.093L34.1274 46.1346C34.2823 46.518 34.6512 46.7507 35.0406 46.7507C35.1631 46.7507 35.2878 46.7274 35.4084 46.679C35.9127 46.4753 36.1565 45.9019 35.9528 45.3976L35.936 45.356Z" fill="#CB9C71"/>
<path d="M27.2646 24.6871C27.0616 24.1828 26.4883 23.9386 25.984 24.142C25.4797 24.3449 25.2355 24.9183 25.4388 25.4226L25.4556 25.4642C25.6097 25.8479 25.979 26.081 26.3689 26.081C26.4913 26.081 26.6157 26.0581 26.7362 26.0093C27.2405 25.8063 27.4843 25.233 27.2814 24.7287L27.2646 24.6871Z" fill="#CB9C71"/>
<path d="M17.3831 35.9648H7.60138C7.05779 35.9648 6.61719 36.4058 6.61719 36.9494V42.2259C6.61719 42.7695 7.05779 43.2101 7.60138 43.2101H17.3831C17.9267 43.2101 18.3673 42.7695 18.3673 42.2259V36.9494C18.3673 36.4058 17.9267 35.9648 17.3831 35.9648V35.9648ZM16.3989 41.2417H8.58558V37.9336H16.3989V41.2417Z" fill="#CB9C71"/>
<path d="M17.3831 44.6289H7.60138C7.05779 44.6289 6.61719 45.0695 6.61719 45.6131C6.61719 46.1563 7.05779 46.5973 7.60138 46.5973H17.3831C17.9267 46.5973 18.3673 46.1563 18.3673 45.6131C18.3673 45.0695 17.9267 44.6289 17.3831 44.6289Z" fill="#CB9C71"/>
<path d="M42.6491 41.0234H32.867C32.3238 41.0234 31.8828 41.464 31.8828 42.0076C31.8828 42.5512 32.3238 42.9918 32.867 42.9918H42.6491C43.1923 42.9918 43.6333 42.5512 43.6333 42.0076C43.6333 41.464 43.1927 41.0234 42.6491 41.0234Z" fill="#CB9C71"/>
<path d="M42.6522 37.4492H37.199C36.6554 37.4492 36.2148 37.8898 36.2148 38.4334C36.2148 38.977 36.6554 39.4176 37.199 39.4176H42.6522C43.1954 39.4176 43.6364 38.977 43.6364 38.4334C43.6364 37.8898 43.1958 37.4492 42.6522 37.4492Z" fill="#CB9C71"/>
<path d="M42.6499 44.7598H39.4959C38.9523 44.7598 38.5117 45.2004 38.5117 45.744C38.5117 46.2872 38.9523 46.7281 39.4959 46.7281H42.6499C43.1931 46.7281 43.6341 46.2872 43.6341 45.744C43.6341 45.2004 43.1935 44.7598 42.6499 44.7598Z" fill="#CB9C71"/>
<path d="M15.8049 12.8844H24.5524C25.0956 12.8844 25.5366 12.4438 25.5366 11.9002C25.5366 11.3566 25.0956 10.916 24.5524 10.916H15.8049C15.2613 10.916 14.8203 11.3566 14.8203 11.9002C14.8203 12.4438 15.2613 12.8844 15.8049 12.8844Z" fill="#CB9C71"/>
<path d="M15.8049 17.4196H28.332C28.8756 17.4196 29.3162 16.979 29.3162 16.4354C29.3162 15.8922 28.8756 15.4512 28.332 15.4512H15.8049C15.2613 15.4512 14.8203 15.8922 14.8203 16.4354C14.8203 16.979 15.2613 17.4196 15.8049 17.4196V17.4196Z" fill="#CB9C71"/>
<path d="M15.8049 21.7578H28.332C28.8756 21.7578 29.3162 21.3169 29.3162 20.7736C29.3162 20.23 28.8756 19.7891 28.332 19.7891H15.8049C15.2613 19.7891 14.8203 20.23 14.8203 20.7736C14.8203 21.3169 15.2613 21.7578 15.8049 21.7578V21.7578Z" fill="#CB9C71"/>
<path d="M15.8049 26.0582H21.6361C22.1797 26.0582 22.6203 25.6176 22.6203 25.074C22.6203 24.5304 22.1797 24.0898 21.6361 24.0898H15.8049C15.2613 24.0898 14.8203 24.5304 14.8203 25.074C14.8203 25.6176 15.2613 26.0582 15.8049 26.0582Z" fill="#CB9C71"/>
</svg>
