<svg width="50" height="50" viewBox="0 0 50 50" fill="none" xmlns="http://www.w3.org/2000/svg">
<path d="M0.833333 8.33333H13.3333V10C13.3333 10.3365 13.5368 10.6409 13.8477 10.7699C13.951 10.8126 14.0592 10.8333 14.1667 10.8333C14.3831 10.8333 14.5968 10.7483 14.7559 10.5892L17.0117 8.33333H19.1667C19.6265 8.33333 20 7.9598 20 7.5V0.833333C20 0.373535 19.6265 0 19.1667 0H0.833333C0.373535 0 0 0.373535 0 0.833333V7.5C0 7.9598 0.373535 8.33333 0.833333 8.33333ZM1.66667 1.66667H18.3333V6.66667H16.6667C16.4457 6.66667 16.2333 6.75415 16.0775 6.91081L15 7.98828V7.5C15 7.0402 14.6265 6.66667 14.1667 6.66667H1.66667V1.66667Z" fill="#CB9C71"/>
<path d="M32.5013 6.66667H36.3229L38.5788 8.92253C38.7379 9.08162 38.9515 9.16667 39.168 9.16667C39.2754 9.16667 39.3836 9.14592 39.487 9.10319C39.7979 8.9742 40.0013 8.66984 40.0013 8.33333V6.66667H44.168C44.6278 6.66667 45.0013 6.29313 45.0013 5.83333V0.833333C45.0013 0.373535 44.6278 0 44.168 0H32.5013C32.0415 0 31.668 0.373535 31.668 0.833333V5.83333C31.668 6.29313 32.0415 6.66667 32.5013 6.66667ZM33.3346 1.66667H43.3346V5H39.168C38.7082 5 38.3346 5.37354 38.3346 5.83333V6.32161L37.2572 5.24414C37.1013 5.08748 36.8889 5 36.668 5H33.3346V1.66667Z" fill="#CB9C71"/>
<path d="M4.16667 39.166V49.9993H5.83333V39.166H12.5V49.166C12.5 49.6258 12.8735 49.9993 13.3333 49.9993H18.3333C18.7931 49.9993 19.1667 49.6258 19.1667 49.166V36.666C19.1667 35.7244 18.8407 34.8643 18.3118 34.166H24.1667V48.3327H20.8333V49.9993H29.1667V48.3327H25.8333V34.166H31.6683C31.145 34.8626 30.8333 35.7285 30.8333 36.666V49.166C30.8333 49.6258 31.2069 49.9993 31.6667 49.9993H36.6667C37.1265 49.9993 37.5 49.6258 37.5 49.166V39.166H44.1667V49.9993H45.8333V39.166C48.1307 39.166 50 37.2967 50 34.9993V24.166C50 22.3317 48.8009 20.7875 47.1509 20.2333C48.3834 19.1628 49.1667 17.5893 49.1667 15.8327C49.1667 12.6161 46.5499 9.99935 43.3333 9.99935C40.1168 9.99935 37.5 12.6161 37.5 15.8327C37.5 17.5893 38.2833 19.1628 39.5158 20.2333C37.8658 20.7875 36.6667 22.3317 36.6667 24.166V27.4993H30C29.5402 27.4993 29.1667 27.8729 29.1667 28.3327V32.4993H21.1568L23.291 26.0959L21.7098 25.5686L19.399 32.4993H11.8726L13.1694 26.666H17.5C17.7209 26.666 17.9333 26.5785 18.0892 26.4219L22.8451 21.666H23.4408C23.37 21.9362 23.3333 22.2161 23.3333 22.4993C23.3333 24.3377 24.8283 25.8327 26.6667 25.8327C28.505 25.8327 30 24.3377 30 22.4993C30 22.2161 29.9634 21.9362 29.8926 21.666H31.6667C32.1265 21.666 32.5 21.2925 32.5 20.8327V16.8495C32.5 16.5195 32.3059 16.2209 32.004 16.0878C31.7041 15.9552 31.3517 16.0109 31.1068 16.2319C30.7983 16.5118 30.4049 16.666 30 16.666C29.0808 16.666 28.3333 15.9185 28.3333 14.9993C28.3333 14.0802 29.0808 13.3327 30 13.3327C30.4049 13.3327 30.7983 13.4869 31.1076 13.7668C31.3517 13.9886 31.7033 14.0435 32.0048 13.9109C32.3059 13.7778 32.5 13.4784 32.5 13.1492V9.16602C32.5 8.70622 32.1265 8.33268 31.6667 8.33268H29.8926C29.9634 8.0625 30 7.78255 30 7.49935C30 5.66097 28.505 4.16602 26.6667 4.16602C24.8283 4.16602 23.3333 5.66097 23.3333 7.49935C23.3333 7.78255 23.37 8.0625 23.4408 8.33268H21.6667C21.2069 8.33268 20.8333 8.70622 20.8333 9.16602V14.6543L15.4883 19.9993H13.2418C14.325 18.9394 15 17.4644 15 15.8327C15 12.6161 12.3832 9.99935 9.16667 9.99935C5.95011 9.99935 3.33333 12.6161 3.33333 15.8327C3.33333 17.6235 4.14591 19.2258 5.41992 20.2976C4.11499 20.8136 3.11483 21.9635 2.84912 23.4059L1.66667 29.4553V22.4993H0V34.9993C0 37.2967 1.8693 39.166 4.16667 39.166ZM39.1667 15.8327C39.1667 13.5353 41.036 11.666 43.3333 11.666C45.6307 11.666 47.5 13.5353 47.5 15.8327C47.5 18.13 45.6307 19.9993 43.3333 19.9993C41.036 19.9993 39.1667 18.13 39.1667 15.8327ZM30.8333 29.166H37.5C37.9598 29.166 38.3333 28.7925 38.3333 28.3327V24.166C38.3333 22.7878 39.4552 21.666 40.8333 21.666H45.8333C47.2115 21.666 48.3333 22.7878 48.3333 24.166V34.9993C48.3333 36.3775 47.2115 37.4993 45.8333 37.4993H36.6667C36.2069 37.4993 35.8333 37.8729 35.8333 38.3327V48.3327H32.5V36.666C32.5 35.2878 33.6218 34.166 35 34.166H42.5C42.9598 34.166 43.3333 33.7925 43.3333 33.3327V25.8327H41.6667V32.4993H30.8333V29.166ZM22.5 9.99935H24.8165C25.1465 9.99935 25.4451 9.80526 25.5782 9.50334C25.7125 9.20264 25.6559 8.85026 25.4342 8.60612C25.1542 8.29769 25 7.90422 25 7.49935C25 6.58016 25.7475 5.83268 26.6667 5.83268C27.5859 5.83268 28.3333 6.58016 28.3333 7.49935C28.3333 7.90422 28.1791 8.29769 27.8992 8.60693C27.6774 8.85107 27.6217 9.20264 27.7551 9.50415C27.8882 9.80526 28.1868 9.99935 28.5168 9.99935H30.8333V11.7734C30.5632 11.7026 30.2832 11.666 30 11.666C28.1616 11.666 26.6667 13.161 26.6667 14.9993C26.6667 16.8377 28.1616 18.3327 30 18.3327C30.2832 18.3327 30.5632 18.2961 30.8333 18.2253V19.9993H28.5168C28.1868 19.9993 27.8882 20.1934 27.7551 20.4954C27.6208 20.7969 27.6782 21.1484 27.8992 21.3926C28.1791 21.701 28.3333 22.0945 28.3333 22.4993C28.3333 23.4185 27.5859 24.166 26.6667 24.166C25.7475 24.166 25 23.4185 25 22.4993C25 22.0945 25.1542 21.701 25.4342 21.3926C25.6559 21.1484 25.7125 20.7969 25.5782 20.4954C25.4451 20.1934 25.1465 19.9993 24.8165 19.9993H24.5117L25.5892 18.9219C25.9151 18.5959 25.9151 18.0694 25.5892 17.7435L22.5 14.6543V9.99935ZM5 15.8327C5 13.5353 6.8693 11.666 9.16667 11.666C11.464 11.666 13.3333 13.5353 13.3333 15.8327C13.3333 18.13 11.464 19.9993 9.16667 19.9993C6.8693 19.9993 5 18.13 5 15.8327ZM2.36735 34.5595L4.48568 23.7168C4.705 22.5286 5.74178 21.666 6.94987 21.666H15.8333C16.0543 21.666 16.2667 21.5785 16.4225 21.4219L21.6667 16.1777L23.8216 18.3327L17.1549 24.9993H12.5C12.109 24.9993 11.7708 25.2712 11.6866 25.652L10.0199 33.152C9.96501 33.3986 10.0248 33.657 10.1835 33.8535C10.3418 34.0509 10.5806 34.166 10.8333 34.166H15C16.3782 34.166 17.5 35.2878 17.5 36.666V48.3327H14.1667V38.3327C14.1667 37.8729 13.7931 37.4993 13.3333 37.4993H4.82503C4.08325 37.4993 3.3842 37.1718 2.90934 36.6009C2.43164 36.0292 2.23592 35.2817 2.36735 34.5595Z" fill="#CB9C71"/>
<path d="M3.33203 3.33398H6.66536V5.00065H3.33203V3.33398Z" fill="#CB9C71"/>
<path d="M8.33203 3.33398H9.9987V5.00065H8.33203V3.33398Z" fill="#CB9C71"/>
<path d="M11.668 3.33398H13.3346V5.00065H11.668V3.33398Z" fill="#CB9C71"/>
<path d="M15 3.33398H16.6667V5.00065H15V3.33398Z" fill="#CB9C71"/>
</svg>
